<svg xmlns="http://www.w3.org/2000/svg" xmlns:xlink="http://www.w3.org/1999/xlink" viewBox="0 0 1200 423.04"><defs><style>.cls-1,.cls-10,.cls-11,.cls-6,.cls-7,.cls-8,.cls-9{fill:none;}.cls-2{clip-path:url(#clip-path);}.cls-3{fill:#232f3e;}.cls-4{fill:#0096d6;}.cls-5{fill:#fff;}.cls-10,.cls-6,.cls-9{stroke:#0096d6;}.cls-6,.cls-7,.cls-9{stroke-linecap:round;}.cls-6,.cls-7,.cls-8{stroke-linejoin:round;}.cls-10,.cls-11,.cls-6,.cls-7,.cls-8,.cls-9{stroke-width:2px;}.cls-11,.cls-7,.cls-8{stroke:#fff;}.cls-10,.cls-11,.cls-9{stroke-miterlimit:10;}</style><clipPath id="clip-path" transform="translate(0 17.77)"><rect class="cls-1" width="1200" height="400"/></clipPath></defs><g id="Layer_2" data-name="Layer 2"><g id="Layer_1-2" data-name="Layer 1"><g class="cls-2"><rect class="cls-3" y="17.77" width="1200" height="400"/><g id="dangerous_good"><path class="cls-4" d="M147.74,79.55a2.41,2.41,0,1,1-2.41,2.4,2.39,2.39,0,0,1,2.41-2.4m0-2a4.41,4.41,0,1,0,4.4,4.4,4.41,4.41,0,0,0-4.4-4.4Z" transform="translate(0 17.77)"/><path class="cls-5" d="M147.74,59.08a22.82,22.82,0,0,1,10.38,2.48l-6,10.46a10.94,10.94,0,0,0-8.69,0l-6-10.46a22.86,22.86,0,0,1,10.39-2.48m0-2a24.69,24.69,0,0,0-11.3,2.7,2,2,0,0,0-.82,2.78l6,10.46a2,2,0,0,0,1.73,1,2.13,2.13,0,0,0,.81-.16,8.84,8.84,0,0,1,7.08,0,2,2,0,0,0,.8.16,2,2,0,0,0,1.73-1l6-10.46a2,2,0,0,0-.82-2.78,24.68,24.68,0,0,0-11.29-2.7Z" transform="translate(0 17.77)"/><path class="cls-5" d="M170.58,83.16h0m0,0a22.85,22.85,0,0,1-10.38,18l-6-10.46a10.8,10.8,0,0,0,4.34-7.52h12.08m0-2H158.5a2,2,0,0,0-2,1.78A8.84,8.84,0,0,1,153,89.07a2,2,0,0,0-.55,2.61l6,10.46a2,2,0,0,0,1.27.94,1.82,1.82,0,0,0,.46.06,1.92,1.92,0,0,0,1.09-.33,24.93,24.93,0,0,0,11.28-19.44,1.48,1.48,0,0,0,0-.21,2,2,0,0,0-2-2Zm0,4Z" transform="translate(0 17.77)"/><path class="cls-5" d="M137,83.16a10.8,10.8,0,0,0,4.34,7.52l-6,10.46a22.85,22.85,0,0,1-10.38-18H137m0-2H124.89a2,2,0,0,0-1.45.62,2,2,0,0,0-.55,1.48,25,25,0,0,0,11.29,19.55,2,2,0,0,0,1.09.33,1.89,1.89,0,0,0,.47-.06,2,2,0,0,0,1.26-.94l6-10.46a2,2,0,0,0-.55-2.61A8.92,8.92,0,0,1,139,82.94a2,2,0,0,0-2-1.78Z" transform="translate(0 17.77)"/><polyline class="cls-6" points="113.56 80.01 113.56 119.47 147.74 139.21 147.74 116.97"/><polyline class="cls-6" points="147.74 139.21 181.91 119.47 181.91 80.01 162.65 91.13"/><polyline class="cls-6" points="181.91 80.01 147.74 60.28 113.56 80.01 132.82 91.13"/></g><g id="food_safety"><path class="cls-6" d="M270.85,274.72c-20.27-7.26-19.92-23.88-19.67-37.26,0-1,0-2,0-2.94,8-.24,14.25-2.62,19.63-7.43,5.36,4.81,11.65,7.19,19.62,7.43,0,.95,0,1.93,0,2.94C290.78,250.84,291.12,267.46,270.85,274.72Z" transform="translate(0 17.77)"/><path class="cls-7" d="M240.78,213v76.7c0,2.75-4.41,2.75-4.41,0V213" transform="translate(0 17.77)"/><path class="cls-7" d="M305.6,213v76.7c0,2.75-4.41,2.75-4.41,0V251.39c-4.64-15.84-6.2-30.26,0-38.42C303.6,210.79,304.73,211.59,305.6,213Z" transform="translate(0 17.77)"/><path class="cls-7" d="M232.4,213V233.6c0,7.65,12.34,7.65,12.34,0V213" transform="translate(0 17.77)"/></g><g id="global_trade_services"><path class="cls-6" d="M296.7,25.4a27.61,27.61,0,0,1-7,18.36c-.23.26-.47.52-.71.77a27.69,27.69,0,0,1-40.06,0c-.24-.25-.48-.51-.71-.77a27.69,27.69,0,0,1-.62-36c.42-.52.86-1,1.33-1.5a27.69,27.69,0,0,1,40.06,0c.47.48.91,1,1.33,1.5A27.57,27.57,0,0,1,296.7,25.4Z" transform="translate(0 17.77)"/><ellipse class="cls-6" cx="269" cy="43.16" rx="13.85" ry="27.7"/><line class="cls-6" x1="241.3" y1="43.16" x2="296.7" y2="43.16"/><path class="cls-6" d="M290.36,7.77c-.42.26-.86.51-1.33.76-5,2.68-12.15,4.36-20,4.36s-15-1.68-20-4.36c-.46-.25-.91-.5-1.33-.76.42-.52.86-1,1.33-1.5a27.69,27.69,0,0,1,40.06,0C289.5,6.75,289.94,7.25,290.36,7.77Z" transform="translate(0 17.77)"/><path class="cls-6" d="M289.74,43.76c-.23.26-.47.52-.71.77a27.69,27.69,0,0,1-40.06,0c-.24-.25-.48-.51-.71-.77l.71-.39c5-2.69,12.15-4.36,20-4.36s15,1.67,20,4.36Z" transform="translate(0 17.77)"/><line class="cls-6" x1="269" y1="15.46" x2="269" y2="70.86"/><path class="cls-7" d="M255.66,61a38.14,38.14,0,0,1-14.14-9.35q-.5-.51-1-1.05a38,38,0,0,1-.86-49.36c.58-.71,1.19-1.4,1.82-2.06A37.89,37.89,0,0,1,269-12.59c1.35,0,2.69.07,4,.2" transform="translate(0 17.77)"/><path class="cls-7" d="M282.35-10.18A38,38,0,0,1,296.48-.84c.63.66,1.24,1.35,1.82,2.06a38,38,0,0,1-.86,49.36q-.46.54-1,1.05A38,38,0,0,1,265,63.18" transform="translate(0 17.77)"/><polyline class="cls-7" points="265.35 9.74 272.92 5.37 265.35 1"/><polyline class="cls-7" points="272.92 76.61 265.35 80.98 272.92 85.35"/></g><g id="global_security_operations"><path class="cls-6" d="M1033.86,121.48c-33.58-12-33-39.56-32.59-61.73,0-1.68.07-3.3.09-4.88,13.2-.4,23.6-4.35,32.51-12.32,8.88,8,19.31,11.92,32.52,12.32,0,1.58,0,3.2.08,4.88C1066.88,81.92,1067.45,109.45,1033.86,121.48Z" transform="translate(0 17.77)"/></g><path class="cls-7" d="M1053.52,82a19.55,19.55,0,0,1-4.94,13c-.16.19-.33.37-.5.55a19.63,19.63,0,0,1-28.41,0c-.17-.18-.34-.36-.5-.55a19.64,19.64,0,0,1-.45-25.52c.3-.37.62-.72.95-1.06a19.63,19.63,0,0,1,28.41,0c.33.34.64.69.94,1.06A19.55,19.55,0,0,1,1053.52,82Z" transform="translate(0 17.77)"/><ellipse class="cls-7" cx="1033.87" cy="99.76" rx="9.82" ry="19.64"/><line class="cls-7" x1="1014.23" y1="99.76" x2="1053.52" y2="99.76"/><path class="cls-7" d="M1049,69.49l-.94.54a34.2,34.2,0,0,1-28.41,0l-.95-.54c.3-.37.62-.72.95-1.06a19.63,19.63,0,0,1,28.41,0C1048.41,68.77,1048.72,69.12,1049,69.49Z" transform="translate(0 17.77)"/><path class="cls-7" d="M1048.58,95c-.16.19-.33.37-.5.55a19.63,19.63,0,0,1-28.41,0c-.17-.18-.34-.36-.5-.55l.5-.27a34.1,34.1,0,0,1,28.41,0Z" transform="translate(0 17.77)"/><line class="cls-7" x1="1033.87" y1="80.11" x2="1033.87" y2="119.4"/><g id="product_safety"><polyline class="cls-6" points="898.3 23.49 898.3 62.95 932.48 82.68 932.48 72.96"/><polyline class="cls-6" points="932.48 82.68 966.65 62.95 966.65 23.49 958.23 28.35"/><polyline class="cls-6" points="966.65 23.49 932.48 3.76 898.3 23.49 906.73 28.35"/><path class="cls-7" d="M932.48,46.87c-17.55-6.28-17.25-20.67-17-32.25,0-.88,0-1.72,0-2.55,6.91-.21,12.34-2.27,17-6.43,4.64,4.16,10.09,6.22,17,6.43,0,.83,0,1.67,0,2.55C949.73,26.2,950,40.59,932.48,46.87Z" transform="translate(0 17.77)"/></g><g id="restricted_products"><polyline class="cls-6" points="1051.78 315.23 1055.2 313.25 1055.2 337.65 1034.07 349.86"/><polyline class="cls-6" points="1044.44 307.05 1034.07 301.06 1012.93 313.25 1028.66 322.33"/><polyline class="cls-6" points="1012.93 313.25 1012.93 337.65 1014.27 338.42"/><polyline class="cls-6" points="1034.07 334.29 1034.07 349.86 1023.56 343.79"/><line class="cls-7" x1="1061.39" y1="298.5" x2="1006.35" y2="353.54"/><circle class="cls-7" cx="1033.87" cy="326.02" r="38.92"/></g><g id="ww_transportation"><path class="cls-6" d="M280.66,165.11c.19-2.27.29-4.52-.66-6.55-.82-1.38-4.65-1.73-7.61-2.38l-8-7.9c0-1.26-29.33-1.26-29.33,0-.61,0-.61,17,0,17" transform="translate(0 17.77)"/><line class="cls-6" x1="263.76" y1="183.08" x2="251.54" y2="183.08"/><circle class="cls-7" cx="272.58" cy="183.06" r="3.21"/><circle class="cls-7" cx="243.01" cy="183.06" r="3.21"/><line class="cls-6" x1="247.59" y1="137.81" x2="245.79" y2="136.36"/><line class="cls-6" x1="234.8" y1="142.19" x2="233.35" y2="141.34"/><line class="cls-6" x1="242.82" y1="139.4" x2="236.54" y2="138.44"/><path class="cls-6" d="M296,119.68,254.66,126c-6.29,1-23-1.67-23-1.67s.63-.31,1.71-.8l-5.18-3,3.06-.66,5.31.81-6.64-11.56,3.49-.53,12.4,10a47.48,47.48,0,0,1,7.42-1.93l1.94-.3-8.05-4,4-.61,12.37,3.32L296.61,110a17.94,17.94,0,0,1,8,1C313.79,112.78,309.27,117.64,296,119.68Z" transform="translate(0 17.77)"/><line class="cls-6" x1="264.19" y1="138.59" x2="255.15" y2="134.13"/><line class="cls-6" x1="274.44" y1="135.81" x2="263.42" y2="132.85"/><polyline class="cls-7" points="274.16 151.18 274.16 155.06 306.64 155.06 306.64 151.18"/><path class="cls-7" d="M282,146.88v-9.59l-1.37-4.3a49.87,49.87,0,0,0,10.3-2.77c4.3,1,8.48,2,8.71,7.07v9.59" transform="translate(0 17.77)"/><line class="cls-7" x1="291.04" y1="158.74" x2="291.04" y2="155.06"/><line class="cls-7" x1="303.38" y1="151.18" x2="309.83" y2="151.18"/><line class="cls-7" x1="270.66" y1="151.18" x2="277.11" y2="151.18"/><rect class="cls-6" x="286.79" y="158.74" width="8.5" height="4.18"/></g><g id="aces"><path class="cls-6" d="M1060.31,180.8a10.09,10.09,0,0,0-8.21-5.15,10.09,10.09,0,0,0-9.81-7.71,10,10,0,0,0-1.9.18,15.1,15.1,0,0,0-29.12,4.14,12.24,12.24,0,1,0-4.67,23.56c.29,0,.58,0,.87,0h31.92" transform="translate(0 17.77)"/><path class="cls-7" d="M1032.68,228.41a23.55,23.55,0,0,1-23.56-23.55" transform="translate(0 17.77)"/><path class="cls-7" d="M1041.08,158.39a32.58,32.58,0,0,1,27.6,18.75" transform="translate(0 17.77)"/><polyline class="cls-7" points="1013.57 226.65 1009.12 218.95 1004.68 226.65"/><polyline class="cls-7" points="1062.17 191.99 1069.49 197.03 1070.19 188.16"/><circle class="cls-7" cx="1026.82" cy="196.61" r="10.19"/><polyline class="cls-6" points="1026.82 190.31 1026.82 196.61 1030.82 196.61"/><polygon class="cls-7" points="1063.82 249.65 1063.82 240.08 1073.38 240.08 1063.82 249.65"/><polygon class="cls-7" points="1039.83 203.69 1039.83 249.65 1063.82 249.65 1073.38 240.08 1073.38 203.69 1039.83 203.69"/><line class="cls-6" x1="1047.6" y1="211.47" x2="1065.93" y2="211.47"/><line class="cls-6" x1="1047.6" y1="217.52" x2="1065.93" y2="217.52"/><line class="cls-6" x1="1047.6" y1="223.57" x2="1059.69" y2="223.57"/></g><g id="pars_td"><polygon class="cls-7" points="932.37 163.19 904.81 147.75 932.37 133.11 959.93 147.75 932.37 163.19"/><path class="cls-8" d="M948.88,136.11V152c-6.33,10.28-26.44,9.43-33,0V136.11" transform="translate(0 17.77)"/><polyline class="cls-6" points="932.37 146.98 954.81 150.62 954.81 169.65"/><path class="cls-9" d="M896.47,151.63a38.32,38.32,0,0,1,60.74-42.37c1,.81,1.86,1.65,2.72,2.52" transform="translate(0 17.77)"/><path class="cls-9" d="M968.49,125.42a38.32,38.32,0,0,1-60.74,42.37c-1-.81-1.86-1.65-2.72-2.52" transform="translate(0 17.77)"/><polyline class="cls-6" points="947.64 128.62 961.92 131.19 957.01 117.53"/><polyline class="cls-6" points="917.23 184.06 902.95 181.49 907.86 195.15"/></g><g id="business_intellegence"><path class="cls-6" d="M970.51,370.36v9.11h0c-.6,3.6-7.32,6.43-15.52,6.43s-14.93-2.83-15.53-6.43l0-.23v-9.11c.15,1.63,1.55,3.11,3.78,4.26a30.09,30.09,0,0,0,23.55,0C968.88,373.29,970.26,371.89,970.51,370.36Z" transform="translate(0 17.77)"/><path class="cls-6" d="M970.51,361.25v9.11c-.25,1.53-1.63,2.93-3.75,4a30.09,30.09,0,0,1-23.55,0c-2.23-1.15-3.63-2.63-3.78-4.26V361c.15,1.63,1.55,3.11,3.78,4.26a30.09,30.09,0,0,0,23.55,0C968.88,364.18,970.26,362.78,970.51,361.25Z" transform="translate(0 17.77)"/><polygon class="cls-7" points="918.82 355.15 918.82 351.39 899.16 351.39 899.16 355.15 894.4 355.15 894.4 417.84 923.58 417.84 923.58 355.15 918.82 355.15"/><rect class="cls-6" x="898.95" y="360.28" width="4.32" height="6.26"/><rect class="cls-6" x="906.81" y="360.28" width="4.32" height="6.26"/><rect class="cls-6" x="914.67" y="360.28" width="4.32" height="6.26"/><rect class="cls-6" x="898.95" y="372.34" width="4.32" height="6.26"/><rect class="cls-6" x="906.81" y="372.34" width="4.32" height="6.26"/><rect class="cls-6" x="914.67" y="372.34" width="4.32" height="6.26"/><rect class="cls-6" x="898.95" y="384.4" width="4.32" height="6.26"/><rect class="cls-6" x="906.81" y="384.4" width="4.32" height="6.26"/><rect class="cls-6" x="914.67" y="384.4" width="4.32" height="6.26"/><rect class="cls-6" x="898.95" y="396.45" width="4.32" height="6.26"/><rect class="cls-6" x="906.81" y="396.45" width="4.32" height="6.26"/><rect class="cls-7" x="902.96" y="410.66" width="12.02" height="6.61"/><rect class="cls-6" x="914.67" y="396.45" width="4.32" height="6.26"/><path class="cls-7" d="M948.17,391a33.25,33.25,0,0,1-13.82,5.88" transform="translate(0 17.77)"/><path class="cls-7" d="M924.47,329.8a33.53,33.53,0,0,1,27.44,9.31" transform="translate(0 17.77)"/><polyline class="cls-7" points="937.18 410.65 932.3 415.04 938.54 417.08"/><polyline class="cls-7" points="946.17 355.82 952.43 357.8 951.01 351.39"/><path class="cls-6" d="M970.51,352.14v9.11c-.25,1.53-1.63,2.93-3.75,4a30.09,30.09,0,0,1-23.55,0c-2.23-1.15-3.63-2.63-3.78-4.26v-9.1c.15,1.62,1.55,3.1,3.78,4.25a30,30,0,0,0,23.55,0C968.88,355.07,970.26,353.68,970.51,352.14Z" transform="translate(0 17.77)"/><path class="cls-6" d="M970.55,351.62a3,3,0,0,1,0,.52c-.25,1.54-1.63,2.93-3.75,4a30,30,0,0,1-23.55,0c-2.23-1.15-3.63-2.63-3.78-4.25,0-.1,0-.2,0-.3,0-3.85,7-7,15.57-7S970.55,347.77,970.55,351.62Z" transform="translate(0 17.77)"/></g><g id="compliance_operations"><polyline class="cls-7" points="287.28 398.01 292.97 416.77 282.54 413.7 275.58 422.04 270.21 404.35"/><polyline class="cls-7" points="250.72 398.01 245.03 416.77 255.46 413.7 262.42 422.04 267.79 404.35"/><path class="cls-10" d="M302.79,357.64c0,3.37-5.42,5.85-6.41,8.89s1.87,8.34-.05,11-7.76,1.49-10.41,3.42-3.32,7.83-6.48,8.86-7.06-3.36-10.44-3.36-7.4,4.35-10.44,3.36-3.85-6.94-6.48-8.86-8.48-.77-10.41-3.42,1-7.81,0-11-6.41-5.52-6.41-8.89,5.42-5.85,6.41-8.9-1.87-8.34,0-11,7.76-1.5,10.41-3.43,3.32-7.83,6.48-8.85,7.07,3.36,10.44,3.36,7.4-4.35,10.44-3.36,3.85,6.94,6.48,8.85,8.48.77,10.42,3.43-1,7.8,0,11S302.79,354.26,302.79,357.64Z" transform="translate(0 17.77)"/><circle class="cls-11" cx="269" cy="375.4" r="24.95"/><polygon class="cls-6" points="269 360.36 273.53 369.53 283.64 371 276.32 378.14 278.05 388.21 269 383.46 259.95 388.21 261.68 378.14 254.36 371 264.48 369.53 269 360.36"/></g><g id="food_safety-2" data-name="food_safety"><path class="cls-6" d="M1145.14,274.72c-20.27-7.26-19.93-23.88-19.67-37.26,0-1,0-2,0-2.94,8-.24,14.24-2.62,19.62-7.43,5.36,4.81,11.66,7.19,19.63,7.43,0,.95,0,1.93,0,2.94C1165.06,250.84,1165.41,267.46,1145.14,274.72Z" transform="translate(0 17.77)"/><path class="cls-7" d="M1115.06,213v76.7c0,2.75-4.41,2.75-4.41,0V213" transform="translate(0 17.77)"/><path class="cls-7" d="M1179.88,213v76.7c0,2.75-4.41,2.75-4.41,0V251.39c-4.63-15.84-6.2-30.26,0-38.42C1177.89,210.79,1179,211.59,1179.88,213Z" transform="translate(0 17.77)"/><path class="cls-7" d="M1106.69,213V233.6c0,7.65,12.33,7.65,12.33,0V213" transform="translate(0 17.77)"/></g><g id="global_trade_services-2" data-name="global_trade_services"><path class="cls-6" d="M1171,25.4a27.56,27.56,0,0,1-7,18.36c-.23.26-.46.52-.7.77a27.7,27.7,0,0,1-40.07,0c-.24-.25-.48-.51-.71-.77a27.69,27.69,0,0,1-.62-36c.42-.52.87-1,1.33-1.5a27.7,27.7,0,0,1,40.07,0c.46.48.9,1,1.33,1.5A27.57,27.57,0,0,1,1171,25.4Z" transform="translate(0 17.77)"/><ellipse class="cls-6" cx="1143.28" cy="43.16" rx="13.85" ry="27.7"/><line class="cls-6" x1="1115.58" y1="43.16" x2="1170.99" y2="43.16"/><path class="cls-6" d="M1164.65,7.77c-.43.26-.87.51-1.33.76-5,2.68-12.16,4.36-20,4.36s-15-1.68-20-4.36c-.46-.25-.9-.5-1.33-.76.42-.52.87-1,1.33-1.5a27.7,27.7,0,0,1,40.07,0C1163.78,6.75,1164.22,7.25,1164.65,7.77Z" transform="translate(0 17.77)"/><path class="cls-6" d="M1164,43.76c-.23.26-.46.52-.7.77a27.7,27.7,0,0,1-40.07,0c-.24-.25-.48-.51-.71-.77l.71-.39c5-2.69,12.15-4.36,20-4.36s15,1.67,20,4.36Z" transform="translate(0 17.77)"/><line class="cls-6" x1="1143.28" y1="15.46" x2="1143.28" y2="70.86"/><path class="cls-7" d="M1129.94,61a38,38,0,0,1-14.13-9.35c-.33-.34-.65-.69-1-1.05A38,38,0,0,1,1114,1.22c.59-.71,1.2-1.4,1.83-2.06a37.89,37.89,0,0,1,27.47-11.75c1.36,0,2.69.07,4,.2" transform="translate(0 17.77)"/><path class="cls-7" d="M1156.63-10.18a38,38,0,0,1,14.13,9.34c.63.66,1.24,1.35,1.82,2.06a38,38,0,0,1-.85,49.36c-.32.36-.64.71-1,1.05a37.86,37.86,0,0,1-27.48,11.76,37.52,37.52,0,0,1-4-.21" transform="translate(0 17.77)"/><polyline class="cls-7" points="1139.63 9.74 1147.2 5.37 1139.63 1"/><polyline class="cls-7" points="1147.2 76.61 1139.63 80.98 1147.2 85.35"/></g><g id="ww_transportation-2" data-name="ww_transportation"><path class="cls-6" d="M1155,165.11c.19-2.27.28-4.52-.67-6.55-.82-1.38-4.64-1.73-7.6-2.38l-8-7.9c0-1.26-29.32-1.26-29.32,0-.61,0-.61,17,0,17" transform="translate(0 17.77)"/><line class="cls-6" x1="1138.04" y1="183.08" x2="1125.82" y2="183.08"/><circle class="cls-7" cx="1146.87" cy="183.06" r="3.21"/><circle class="cls-7" cx="1117.3" cy="183.06" r="3.21"/><line class="cls-6" x1="1121.87" y1="137.81" x2="1120.07" y2="136.36"/><line class="cls-6" x1="1109.09" y1="142.19" x2="1107.63" y2="141.34"/><line class="cls-6" x1="1117.11" y1="139.4" x2="1110.82" y2="138.44"/><path class="cls-6" d="M1170.3,119.68,1128.94,126c-6.29,1-23-1.67-23-1.67s.63-.31,1.71-.8l-5.17-3,3-.66,5.31.81-6.64-11.56,3.49-.53,12.4,10a47.3,47.3,0,0,1,7.43-1.93l1.94-.3-8.06-4,4-.61,12.36,3.32,33.2-5.11a18,18,0,0,1,8,1C1188.07,112.78,1183.55,117.64,1170.3,119.68Z" transform="translate(0 17.77)"/><line class="cls-6" x1="1138.47" y1="138.59" x2="1129.44" y2="134.13"/><line class="cls-6" x1="1148.72" y1="135.81" x2="1137.7" y2="132.85"/><polyline class="cls-7" points="1148.44 151.18 1148.44 155.06 1180.92 155.06 1180.92 151.18"/><path class="cls-7" d="M1156.28,146.88v-9.59l-1.38-4.3a49.69,49.69,0,0,0,10.3-2.77c4.3,1,8.49,2,8.72,7.07v9.59" transform="translate(0 17.77)"/><line class="cls-7" x1="1165.33" y1="158.74" x2="1165.33" y2="155.06"/><line class="cls-7" x1="1177.66" y1="151.18" x2="1184.11" y2="151.18"/><line class="cls-7" x1="1144.95" y1="151.18" x2="1151.4" y2="151.18"/><rect class="cls-6" x="1161.07" y="158.74" width="8.5" height="4.18"/></g><g id="compliance_operations-2" data-name="compliance_operations"><polyline class="cls-7" points="1161.56 398.01 1167.25 416.77 1156.83 413.7 1149.87 422.04 1144.5 404.35"/><polyline class="cls-7" points="1125.01 398.01 1119.32 416.77 1129.74 413.7 1136.7 422.04 1142.07 404.35"/><path class="cls-10" d="M1177.07,357.64c0,3.37-5.42,5.85-6.41,8.89s1.87,8.34,0,11-7.77,1.49-10.42,3.42-3.32,7.83-6.47,8.86-7.07-3.36-10.45-3.36-7.39,4.35-10.44,3.36-3.84-6.94-6.47-8.86-8.49-.77-10.42-3.42,1-7.81,0-11-6.4-5.52-6.4-8.89,5.42-5.85,6.4-8.9-1.86-8.34,0-11,7.77-1.5,10.42-3.43,3.32-7.83,6.47-8.85,7.07,3.36,10.44,3.36,7.4-4.35,10.45-3.36,3.84,6.94,6.47,8.85,8.49.77,10.42,3.43-1,7.8,0,11S1177.07,354.26,1177.07,357.64Z" transform="translate(0 17.77)"/><circle class="cls-11" cx="1143.28" cy="375.4" r="24.95"/><polygon class="cls-6" points="1143.29 360.36 1147.81 369.53 1157.93 371 1150.61 378.14 1152.34 388.21 1143.29 383.46 1134.23 388.21 1135.96 378.14 1128.64 371 1138.76 369.53 1143.29 360.36"/></g><g id="tech_team"><rect class="cls-6" x="108.27" y="242.14" width="78.93" height="10.36"/><polyline class="cls-6" points="149.05 238.25 149.05 177.79 167.2 177.79"/><polyline class="cls-7" points="165.18 199.43 165.18 218.54 157.93 218.54 157.93 238.25"/><polyline class="cls-6" points="172.88 238.25 172.88 214.66 176.58 214.66"/><path class="cls-6" d="M185.65,196.89a4.54,4.54,0,1,1-4.53-4.54A4.53,4.53,0,0,1,185.65,196.89Z" transform="translate(0 17.77)"/><line class="cls-7" x1="139.57" y1="238.25" x2="139.57" y2="207.62"/><polyline class="cls-6" points="125.77 182.32 130.02 182.32 130.02 238.25"/><polyline class="cls-7" points="114.36 215.71 114.36 231.53 122.22 231.53 122.22 238.25"/><circle class="cls-6" cx="171.73" cy="177.79" r="4.54"/><circle class="cls-7" cx="165.19" cy="194.9" r="4.54"/><circle class="cls-7" cx="139.57" cy="203.08" r="4.54"/><circle class="cls-6" cx="121.23" cy="182.32" r="4.54"/><circle class="cls-7" cx="114.35" cy="211.17" r="4.54"/></g><g id="pmo"><rect class="cls-6" x="174.59" y="308.1" width="11.56" height="11.56"/><rect class="cls-6" x="168.81" y="313.88" width="5.78" height="11.56"/><rect class="cls-6" x="163.03" y="325.44" width="5.78" height="5.78"/><rect class="cls-6" x="127.13" y="327.3" width="11.56" height="11.56" transform="translate(-196.6 209.3) rotate(-45)"/><rect class="cls-6" x="126.1" y="306.33" width="5.78" height="11.56"/><rect class="cls-6" x="110.52" y="307.03" width="5.78" height="5.78" transform="translate(-185.93 188.73) rotate(-45)"/><polygon class="cls-7" points="156.96 322.72 149.45 316.43 149.45 320.3 143.68 320.3 143.68 325.13 149.45 325.13 149.45 329 156.96 322.72"/><rect class="cls-6" x="163.03" y="302.32" width="11.56" height="11.56"/><rect class="cls-6" x="168.81" y="325.44" width="17.34" height="17.34"/><rect class="cls-6" x="163.03" y="331.22" width="5.78" height="11.56"/><rect class="cls-6" x="163.03" y="313.88" width="5.78" height="11.56"/><rect class="cls-6" x="177.48" y="299" width="5.78" height="11.56" transform="translate(485.15 142.18) rotate(90)"/><rect class="cls-6" x="177.48" y="281.67" width="5.78" height="11.56" transform="translate(467.82 124.84) rotate(90)"/><rect class="cls-6" x="109.75" y="294.16" width="11.56" height="11.56"/><rect class="cls-6" x="121.06" y="321.61" width="17.34" height="17.34"/><rect class="cls-6" x="112.21" y="290.34" width="5.78" height="11.56" transform="translate(411.22 198.78) rotate(90)"/><rect class="cls-6" x="109.81" y="335.6" width="5.78" height="11.56"/><rect class="cls-6" x="112.7" y="331.03" width="5.78" height="11.56" transform="translate(452.4 238.98) rotate(90)"/><rect class="cls-6" x="131.56" y="275.59" width="5.78" height="11.56" transform="translate(428.48 403.02) rotate(135)"/></g><g id="product_strategy"><polyline class="cls-7" points="903.04 301.55 903.04 264.88 961.92 264.88 961.92 301.55"/><path class="cls-7" d="M893.77,284.34c0,2.62.6,4,2.93,5.68h71.56c2.33-1.72,2.93-3.06,2.93-5.68H893.77Z" transform="translate(0 17.77)"/><path class="cls-6" d="M952.59,270.77a5.76,5.76,0,0,1-5.37,5.76l-26.46,0a7,7,0,1,1,2.68-13.49,8.65,8.65,0,0,1,16.68-2.37,5.49,5.49,0,0,1,1.08-.11,5.78,5.78,0,0,1,5.62,4.42A5.77,5.77,0,0,1,952.59,270.77Z" transform="translate(0 17.77)"/><polyline class="cls-6" points="936.13 259.36 936.13 236.3 947.32 236.3"/><polyline class="cls-6" points="947.05 259.36 947.05 249.66 954.09 249.66"/><polyline class="cls-6" points="908.09 244.93 913.86 244.93 913.86 259.36"/><circle class="cls-6" cx="950.99" cy="236.3" r="3.67"/><path class="cls-6" d="M908.09,227.16a3.68,3.68,0,1,1-3.67-3.67A3.67,3.67,0,0,1,908.09,227.16Z" transform="translate(0 17.77)"/><path class="cls-6" d="M961.43,231.89a3.67,3.67,0,1,1-3.67-3.67A3.67,3.67,0,0,1,961.43,231.89Z" transform="translate(0 17.77)"/><line class="cls-6" x1="924.43" y1="259.36" x2="924.43" y2="238.48"/><circle class="cls-6" cx="924.43" cy="217.04" r="3.67" transform="translate(562.11 1112.53) rotate(-80.78)"/></g><g id="product_safety-2" data-name="product_safety"><polyline class="cls-6" points="10.59 23.49 10.59 62.95 44.77 82.68 44.77 72.96"/><polyline class="cls-6" points="44.77 82.68 78.94 62.95 78.94 23.49 70.52 28.35"/><polyline class="cls-6" points="78.94 23.49 44.77 3.76 10.59 23.49 19.01 28.35"/><path class="cls-7" d="M44.77,46.87c-17.55-6.28-17.25-20.67-17-32.25,0-.88,0-1.72,0-2.55,6.9-.21,12.33-2.27,17-6.43,4.64,4.16,10.09,6.22,17,6.43,0,.83,0,1.67,0,2.55C62,26.2,62.32,40.59,44.77,46.87Z" transform="translate(0 17.77)"/></g><g id="pars_td-2" data-name="pars_td"><polygon class="cls-7" points="44.66 163.19 17.1 147.75 44.66 133.11 72.21 147.75 44.66 163.19"/><path class="cls-8" d="M61.16,136.11V152c-6.33,10.28-26.43,9.43-33,0V136.11" transform="translate(0 17.77)"/><polyline class="cls-6" points="44.66 146.98 67.09 150.62 67.09 169.65"/><path class="cls-9" d="M8.76,151.63A38.32,38.32,0,0,1,69.5,109.26c1,.81,1.85,1.65,2.71,2.52" transform="translate(0 17.77)"/><path class="cls-9" d="M80.77,125.42A38.32,38.32,0,0,1,20,167.79c-1-.81-1.85-1.65-2.71-2.52" transform="translate(0 17.77)"/><polyline class="cls-6" points="59.93 128.62 74.21 131.19 69.3 117.53"/><polyline class="cls-6" points="29.52 184.06 15.23 181.49 20.15 195.15"/></g><g id="business_intellegence-2" data-name="business_intellegence"><path class="cls-6" d="M82.8,370.36v9.11h0c-.61,3.6-7.33,6.43-15.53,6.43s-14.92-2.83-15.52-6.43a1.81,1.81,0,0,1,0-.23v-9.11c.15,1.63,1.55,3.11,3.78,4.26a26.68,26.68,0,0,0,11.77,2.4A26.68,26.68,0,0,0,79,374.39C81.17,373.29,82.54,371.89,82.8,370.36Z" transform="translate(0 17.77)"/><path class="cls-6" d="M82.8,361.25v9.11c-.26,1.53-1.63,2.93-3.76,4a26.68,26.68,0,0,1-11.77,2.4,26.68,26.68,0,0,1-11.77-2.4c-2.23-1.15-3.63-2.63-3.78-4.26V361c.15,1.63,1.55,3.11,3.78,4.26a26.68,26.68,0,0,0,11.77,2.4,26.73,26.73,0,0,0,11.78-2.4C81.17,364.18,82.54,362.78,82.8,361.25Z" transform="translate(0 17.77)"/><polygon class="cls-7" points="31.11 355.15 31.11 351.39 11.45 351.39 11.45 355.15 6.69 355.15 6.69 417.84 35.86 417.84 35.86 355.15 31.11 355.15"/><rect class="cls-6" x="11.24" y="360.28" width="4.32" height="6.26"/><rect class="cls-6" x="19.1" y="360.28" width="4.32" height="6.26"/><rect class="cls-6" x="26.95" y="360.28" width="4.32" height="6.26"/><rect class="cls-6" x="11.24" y="372.34" width="4.32" height="6.26"/><rect class="cls-6" x="19.1" y="372.34" width="4.32" height="6.26"/><rect class="cls-6" x="26.95" y="372.34" width="4.32" height="6.26"/><rect class="cls-6" x="11.24" y="384.4" width="4.32" height="6.26"/><rect class="cls-6" x="19.1" y="384.4" width="4.32" height="6.26"/><rect class="cls-6" x="26.95" y="384.4" width="4.32" height="6.26"/><rect class="cls-6" x="11.24" y="396.45" width="4.32" height="6.26"/><rect class="cls-6" x="19.1" y="396.45" width="4.32" height="6.26"/><rect class="cls-7" x="15.25" y="410.66" width="12.02" height="6.61"/><rect class="cls-6" x="26.95" y="396.45" width="4.32" height="6.26"/><path class="cls-7" d="M60.46,391a33.25,33.25,0,0,1-13.82,5.88" transform="translate(0 17.77)"/><path class="cls-7" d="M36.75,329.8a33.88,33.88,0,0,1,4-.24,33.36,33.36,0,0,1,23.39,9.55" transform="translate(0 17.77)"/><polyline class="cls-7" points="49.47 410.65 44.58 415.04 50.82 417.08"/><polyline class="cls-7" points="58.46 355.82 64.72 357.8 63.3 351.39"/><path class="cls-6" d="M82.8,352.14v9.11c-.26,1.53-1.63,2.93-3.75,4a26.73,26.73,0,0,1-11.78,2.4,26.68,26.68,0,0,1-11.77-2.4c-2.23-1.15-3.63-2.63-3.78-4.26v-9.1c.15,1.62,1.55,3.1,3.78,4.25a26.67,26.67,0,0,0,11.77,2.41,26.72,26.72,0,0,0,11.78-2.41C81.17,355.07,82.54,353.68,82.8,352.14Z" transform="translate(0 17.77)"/><path class="cls-6" d="M82.84,351.62a3,3,0,0,1,0,.52c-.26,1.54-1.63,2.93-3.75,4a26.72,26.72,0,0,1-11.78,2.41,26.67,26.67,0,0,1-11.77-2.41c-2.23-1.15-3.63-2.63-3.78-4.25,0-.1,0-.2,0-.3,0-3.85,7-7,15.57-7S82.84,347.77,82.84,351.62Z" transform="translate(0 17.77)"/></g><g id="product_strategy-2" data-name="product_strategy"><polyline class="cls-7" points="15.32 301.55 15.32 264.88 74.21 264.88 74.21 301.55"/><path class="cls-7" d="M6.06,284.34c0,2.62.6,4,2.93,5.68H80.54c2.34-1.72,2.93-3.06,2.93-5.68H6.06Z" transform="translate(0 17.77)"/><path class="cls-6" d="M64.88,270.77a5.77,5.77,0,0,1-5.38,5.76l-26.45,0a7,7,0,1,1,2.68-13.49,8.64,8.64,0,0,1,16.67-2.37,5.68,5.68,0,0,1,1.09-.11A5.79,5.79,0,0,1,59.11,265,5.77,5.77,0,0,1,64.88,270.77Z" transform="translate(0 17.77)"/><polyline class="cls-6" points="48.42 259.36 48.42 236.3 59.6 236.3"/><polyline class="cls-6" points="59.33 259.36 59.33 249.66 66.37 249.66"/><polyline class="cls-6" points="20.38 244.93 26.14 244.93 26.14 259.36"/><circle class="cls-6" cx="63.28" cy="236.3" r="3.67"/><path class="cls-6" d="M20.37,227.16a3.67,3.67,0,1,1-3.67-3.67A3.67,3.67,0,0,1,20.37,227.16Z" transform="translate(0 17.77)"/><path class="cls-6" d="M73.72,231.89a3.68,3.68,0,1,1-3.67-3.67A3.67,3.67,0,0,1,73.72,231.89Z" transform="translate(0 17.77)"/><line class="cls-6" x1="36.71" y1="259.36" x2="36.71" y2="238.48"/><circle class="cls-6" cx="36.71" cy="217.04" r="3.67" transform="translate(-183.41 236.28) rotate(-80.78)"/></g></g></g></g></svg>