<svg xmlns="http://www.w3.org/2000/svg" viewBox="0 0 753.7 851.99"><defs><style>.cls-1,.cls-2,.cls-5{fill:none;stroke-linecap:round;stroke-linejoin:round;}.cls-1,.cls-5{stroke:#0096d6;}.cls-1,.cls-2{stroke-width:25px;}.cls-2{stroke:#232f3e;}.cls-3{fill:#232f3e;}.cls-4{fill:#0096d6;}.cls-5{stroke-width:19px;}</style></defs><g id="Layer_2" data-name="Layer 2"><g id="GSA"><g id="C-Ops"><path class="cls-1" d="M376.85,680.36V839.49C587.21,753,724.38,551,741.2,158.74H665.58V104.31H652.41a45.49,45.49,0,0,1-45.49-45.49H466.44C451,41.66,433,28.75,412.07,20.8"/><path class="cls-2" d="M342.11,823.82C151.46,729.74,28.38,528.93,12.5,158.74H88.11V104.31h13.17a45.49,45.49,0,0,0,45.5-45.49H287.25c23.53-26.12,52.92-42.38,89.6-46.32V148.69"/><path class="cls-3" d="M585,419.93l28.25-16.32a6.15,6.15,0,0,1,8.39,2.25l9.19,15.92a6.13,6.13,0,0,1-2.25,8.38L600.3,446.47a6.13,6.13,0,0,1-8.6-2.68A112.32,112.32,0,0,0,583,428.73,6.14,6.14,0,0,1,585,419.93Z"/><path class="cls-3" d="M647.14,482.81V501.2a6.13,6.13,0,0,1-6.14,6.13H608.37a6.13,6.13,0,0,1-6.11-6.62c.22-2.88.34-5.78.34-8.71s-.12-5.83-.34-8.7a6.14,6.14,0,0,1,6.11-6.63H641A6.14,6.14,0,0,1,647.14,482.81Z"/><path class="cls-3" d="M373.18,507.33H340.56a6.13,6.13,0,0,1-6.14-6.13V482.81a6.14,6.14,0,0,1,6.14-6.14h32.62a6.15,6.15,0,0,1,6.12,6.63c-.23,2.87-.34,5.78-.34,8.7s.11,5.83.34,8.71A6.14,6.14,0,0,1,373.18,507.33Z"/><path class="cls-3" d="M396.6,564.08l-28.26,16.31a6.14,6.14,0,0,1-8.38-2.25l-9.18-15.92a6.13,6.13,0,0,1,2.24-8.38l28.24-16.3a6.13,6.13,0,0,1,8.6,2.68,110.81,110.81,0,0,0,8.71,15.06A6.14,6.14,0,0,1,396.6,564.08Z"/><path class="cls-3" d="M381.26,446.47,353,430.16a6.14,6.14,0,0,1-2.25-8.38L360,405.86a6.14,6.14,0,0,1,8.38-2.25l28.26,16.32a6.14,6.14,0,0,1,2,8.8,111.87,111.87,0,0,0-8.71,15.06A6.13,6.13,0,0,1,381.26,446.47Z"/><path class="cls-3" d="M427.51,584.22a110.64,110.64,0,0,0,15.05,8.7,6.13,6.13,0,0,1,2.68,8.61L429,629.76a6.15,6.15,0,0,1-8.39,2.25l-15.91-9.19a6.13,6.13,0,0,1-2.25-8.38l16.31-28.25A6.14,6.14,0,0,1,427.51,584.22Z"/><path class="cls-3" d="M429,354.24l16.3,28.24a6.15,6.15,0,0,1-2.69,8.61,110.64,110.64,0,0,0-15.05,8.7,6.14,6.14,0,0,1-8.8-2L402.4,369.57a6.14,6.14,0,0,1,2.24-8.39L420.56,352A6.15,6.15,0,0,1,429,354.24Z"/><path class="cls-3" d="M481.59,335.64H500a6.14,6.14,0,0,1,6.14,6.14v32.63a6.14,6.14,0,0,1-6.63,6.11c-2.87-.22-5.77-.34-8.7-.34s-5.83.12-8.7.34a6.13,6.13,0,0,1-6.63-6.11V341.78A6.14,6.14,0,0,1,481.59,335.64Z"/><path class="cls-3" d="M490.78,603.82q4.39,0,8.7-.33a6.13,6.13,0,0,1,6.63,6.11v32.63a6.13,6.13,0,0,1-6.14,6.13H481.59a6.13,6.13,0,0,1-6.14-6.13V609.6a6.13,6.13,0,0,1,6.63-6.11Q486.39,603.82,490.78,603.82Z"/><path class="cls-3" d="M562.86,586.18l16.31,28.26a6.13,6.13,0,0,1-2.25,8.38L561,632a6.13,6.13,0,0,1-8.38-2.25l-16.31-28.23a6.14,6.14,0,0,1,2.69-8.61,110.7,110.7,0,0,0,15-8.71A6.15,6.15,0,0,1,562.86,586.18Z"/><path class="cls-3" d="M554.05,399.8A110.21,110.21,0,0,0,539,391.09a6.14,6.14,0,0,1-2.68-8.61l16.31-28.24A6.13,6.13,0,0,1,561,352l15.92,9.2a6.13,6.13,0,0,1,2.25,8.38l-16.31,28.25A6.15,6.15,0,0,1,554.05,399.8Z"/><path class="cls-3" d="M600.3,537.54l28.24,16.3a6.13,6.13,0,0,1,2.25,8.38l-9.19,15.92a6.15,6.15,0,0,1-8.39,2.25L585,564.08a6.12,6.12,0,0,1-2-8.8,113,113,0,0,0,8.71-15.06A6.13,6.13,0,0,1,600.3,537.54Z"/><circle class="cls-2" cx="490.78" cy="492" r="111.82"/><path class="cls-4" d="M142.3,328.62H109.67a6.13,6.13,0,0,1-6.14-6.13V304.1a6.14,6.14,0,0,1,6.14-6.14H142.3a6.14,6.14,0,0,1,6.11,6.63c-.22,2.87-.34,5.78-.34,8.7s.12,5.83.34,8.71A6.13,6.13,0,0,1,142.3,328.62Z"/><path class="cls-4" d="M165.71,385.37l-28.25,16.31a6.14,6.14,0,0,1-8.38-2.25l-9.19-15.92a6.13,6.13,0,0,1,2.25-8.38l28.23-16.3a6.14,6.14,0,0,1,8.61,2.68,110.81,110.81,0,0,0,8.71,15.06A6.13,6.13,0,0,1,165.71,385.37Z"/><path class="cls-4" d="M150.37,267.76l-28.23-16.31a6.13,6.13,0,0,1-2.25-8.38l9.18-15.92a6.15,6.15,0,0,1,8.39-2.25l28.25,16.32a6.13,6.13,0,0,1,2,8.8A110.21,110.21,0,0,0,159,265.08,6.14,6.14,0,0,1,150.37,267.76Z"/><path class="cls-4" d="M196.63,405.51a110,110,0,0,0,15.05,8.7,6.14,6.14,0,0,1,2.68,8.61l-16.3,28.23a6.14,6.14,0,0,1-8.38,2.25l-15.92-9.19a6.13,6.13,0,0,1-2.25-8.38l16.31-28.25A6.15,6.15,0,0,1,196.63,405.51Z"/><path class="cls-4" d="M198.06,175.53l16.3,28.24a6.13,6.13,0,0,1-2.68,8.6,111.14,111.14,0,0,0-15.05,8.71,6.15,6.15,0,0,1-8.81-2l-16.31-28.24a6.15,6.15,0,0,1,2.25-8.39l15.92-9.19A6.13,6.13,0,0,1,198.06,175.53Z"/><path class="cls-4" d="M250.7,156.93h18.39a6.13,6.13,0,0,1,6.13,6.14V195.7a6.13,6.13,0,0,1-6.62,6.11c-2.88-.22-5.78-.34-8.71-.34s-5.83.12-8.7.34a6.14,6.14,0,0,1-6.63-6.11V163.07A6.14,6.14,0,0,1,250.7,156.93Z"/><path class="cls-4" d="M259.89,425.11q4.39,0,8.71-.33a6.13,6.13,0,0,1,6.62,6.11v32.63a6.12,6.12,0,0,1-6.13,6.13H250.7a6.13,6.13,0,0,1-6.14-6.13V430.89a6.13,6.13,0,0,1,6.63-6.11C254.06,425,257,425.11,259.89,425.11Z"/><path class="cls-4" d="M332,407.47l16.31,28.26a6.13,6.13,0,0,1-2.24,8.38l-15.92,9.19a6.15,6.15,0,0,1-8.39-2.25l-16.3-28.23a6.14,6.14,0,0,1,2.68-8.61,110.81,110.81,0,0,0,15.06-8.71A6.14,6.14,0,0,1,332,407.47Z"/><path class="cls-4" d="M323.17,221.09a110.81,110.81,0,0,0-15.06-8.71,6.14,6.14,0,0,1-2.68-8.61l16.3-28.24a6.15,6.15,0,0,1,8.39-2.25L346,182.47a6.14,6.14,0,0,1,2.24,8.39L332,219.11A6.13,6.13,0,0,1,323.17,221.09Z"/><path class="cls-4" d="M259.77,437.61c-68.09-.06-123.91-55.7-124.2-123.79a124.33,124.33,0,0,1,216.37-84.1,5.64,5.64,0,0,1-.56,8.15l-10.62,8.77a5.61,5.61,0,0,1-7.69-.51A99.32,99.32,0,0,0,160.6,311.21c-1.14,54.88,43.14,100.71,98,101.4a98.84,98.84,0,0,0,75.83-33.7,5.6,5.6,0,0,1,7.67-.65l10.79,8.54a5.65,5.65,0,0,1,.72,8.15A123.61,123.61,0,0,1,259.77,437.61Z"/><circle class="cls-1" cx="259.89" cy="313.75" r="77.71"/><line class="cls-5" x1="182.19" y1="313.75" x2="337.6" y2="313.75"/><line class="cls-5" x1="195.02" y1="272.7" x2="324.77" y2="272.7"/><line class="cls-5" x1="195.02" y1="351.17" x2="324.77" y2="351.17"/><line class="cls-5" x1="258.08" y1="238.94" x2="258.08" y2="384.93"/><line class="cls-5" x1="299.13" y1="247.06" x2="299.13" y2="376.81"/><line class="cls-5" x1="220.66" y1="247.06" x2="220.66" y2="376.81"/></g></g></g></svg>