<svg xmlns="http://www.w3.org/2000/svg" viewBox="0 0 717.82 825"><defs><style>.cls-1{fill:#0096d6;}.cls-2{fill:#232f3e;}.cls-3{fill:none;stroke:#0096d6;stroke-linecap:round;stroke-linejoin:round;stroke-width:25px;}</style></defs><g id="Layer_2" data-name="Layer 2"><g id="GSA"><g id="DG_" data-name="DG\"><path class="cls-1" d="M358.91,387.86a24.41,24.41,0,1,1-24.41,24.4,24.4,24.4,0,0,1,24.41-24.4m0-25a49.41,49.41,0,1,0,49.41,49.4,49.46,49.46,0,0,0-49.41-49.4Z"/><path class="cls-2" d="M358.91,180.39a230.85,230.85,0,0,1,105.23,25.2l-61.21,106a110.13,110.13,0,0,0-88,0l-61.21-106a230.89,230.89,0,0,1,105.23-25.2m0-25a254.18,254.18,0,0,0-116.6,27.93A25,25,0,0,0,232,218.09l61.21,106a25,25,0,0,0,31.68,10.4,85.13,85.13,0,0,1,68,0,25,25,0,0,0,31.68-10.4l61.21-106a25,25,0,0,0-10.28-34.77,255.92,255.92,0,0,0-116.6-27.93Z"/><path class="cls-2" d="M590.46,424.47h0m0,0A231.64,231.64,0,0,1,485.27,606.71l-61.21-106a109.74,109.74,0,0,0,44-76.23H590.46m0-25H468.07a25,25,0,0,0-24.85,22.23,85,85,0,0,1-34,58.87,25,25,0,0,0-6.82,32.63l61.21,106a25,25,0,0,0,35.28,8.46A256.62,256.62,0,0,0,615.4,426.21c0-.57.06-1.16.06-1.74a25,25,0,0,0-25-25Zm0,50h0Z"/><path class="cls-2" d="M249.75,424.47a109.72,109.72,0,0,0,44,76.23l-61.21,106A231.64,231.64,0,0,1,127.36,424.47H249.75m0-25H127.36a25,25,0,0,0-25,26.3,256.66,256.66,0,0,0,116.53,201.9,25,25,0,0,0,35.28-8.46l61.21-106a25,25,0,0,0-6.82-32.63,85,85,0,0,1-34-58.87,25,25,0,0,0-24.85-22.23Z"/><polyline class="cls-3" points="12.5 212.5 12.5 612.5 358.91 812.5 358.91 587.09"/><polyline class="cls-3" points="358.91 812.5 705.32 612.5 705.32 212.5 510.11 325.2"/><polyline class="cls-3" points="705.32 212.5 358.91 12.5 12.5 212.5 207.71 325.2"/></g></g></g></svg>