<svg xmlns="http://www.w3.org/2000/svg" viewBox="0 0 838.75 838.75"><defs><style>.cls-1,.cls-2,.cls-3{fill:none;stroke-miterlimit:10;stroke-width:25px;}.cls-1,.cls-2{stroke:#232f3e;}.cls-1{stroke-linecap:round;}.cls-3{stroke:#0096d6;}</style></defs><g id="Layer_2" data-name="Layer 2"><g id="GSA"><g id="GSA-2" data-name="GSA"><line class="cls-1" x1="374.61" y1="327.08" x2="471.97" y2="230"/><line class="cls-1" x1="362.87" y1="604.16" x2="460.23" y2="507.08"/><circle class="cls-2" cx="419.38" cy="419.38" r="406.88"/><path class="cls-1" d="M165.08,530.1c42.74,98,140.51,166.58,254.3,166.58S630.93,628.14,673.67,530.1"/><path class="cls-1" d="M675.92,314C634.43,213.09,535.2,142.08,419.38,142.08S204.32,213.09,162.83,314"/><polygon class="cls-3" points="574.5 246.52 419.38 221.52 264.25 246.52 264.25 327.08 574.5 327.08 574.5 246.52"/><path class="cls-3" d="M574.5,500.19H264.26c0,80.37,100.66,106.72,142.41,138.23l12.71,12.33,12.71-12.33C473.84,606.91,574.5,580.56,574.5,500.19Z"/></g></g></g></svg>