<svg xmlns="http://www.w3.org/2000/svg" viewBox="0 0 838.75 838.75"><defs><style>.cls-1,.cls-2,.cls-3{fill:none;stroke-miterlimit:10;stroke-width:25px;}.cls-1,.cls-2{stroke:#232f3e;}.cls-1{stroke-linecap:round;}.cls-3{stroke:#0096d6;}.cls-4{fill:#0096d6;}</style></defs><g id="Layer_2" data-name="Layer 2"><g id="GSA"><g id="GSA-2" data-name="GSA"><line class="cls-1" x1="374.61" y1="327.08" x2="471.97" y2="230"/><line class="cls-1" x1="362.87" y1="604.16" x2="460.23" y2="507.08"/><circle class="cls-2" cx="419.38" cy="419.38" r="406.88"/><path class="cls-1" d="M165.08,530.1c42.74,98,140.51,166.58,254.3,166.58S630.93,628.14,673.67,530.1"/><path class="cls-1" d="M675.92,314C634.43,213.09,535.2,142.08,419.38,142.08S204.32,213.09,162.83,314"/><polygon class="cls-3" points="574.5 246.52 419.38 221.52 264.25 246.52 264.25 327.08 574.5 327.08 574.5 246.52"/><path class="cls-3" d="M574.5,500.19H264.26c0,80.37,100.66,106.72,142.41,138.23l12.71,12.33,12.71-12.33C473.84,606.91,574.5,580.56,574.5,500.19Z"/><path class="cls-4" d="M53.13,470.57c-2.11,0-3.17-.8-3.17-2.38a6.34,6.34,0,0,1,.4-2c.26-.8.55-1.67.87-2.62l35.19-98.76a9.21,9.21,0,0,1,1.35-2.46,4.38,4.38,0,0,1,1.66-1.27,7.39,7.39,0,0,1,2.7-.4h17.6a5.88,5.88,0,0,1,3.72,1,7,7,0,0,1,2,3.17l35.2,98.76c.31,1,.6,1.82.87,2.62a6.64,6.64,0,0,1,.4,2c0,1.58-1.06,2.38-3.18,2.38H131.29a6,6,0,0,1-3.57-.88,6.47,6.47,0,0,1-2-3.25l-6.5-20.92H81.35l-6.18,20.92a6.47,6.47,0,0,1-2,3.25,6.31,6.31,0,0,1-3.73.88Zm61.19-42.17-14.11-46-13.79,46Z"/><path class="cls-4" d="M212.77,472.63q-26.79,0-40.58-14.35t-13.8-42.09q0-27.42,14.43-42.49t40.58-15.06a81.7,81.7,0,0,1,23,3.33,4.53,4.53,0,0,1,2.7,1.59,6.87,6.87,0,0,1,.79,3.8v10.31q0,3.65-2.7,3.64a22.09,22.09,0,0,1-3.33-.63,88.58,88.58,0,0,0-17.59-2.06q-16.5,0-24.65,8.72T183.44,414v3.65q0,17.75,7.93,26.39t24.25,8.64a80.4,80.4,0,0,0,9.52-.71,95.05,95.05,0,0,0,10.3-1.82,21.12,21.12,0,0,1,3.33-.64q2.68,0,2.69,3.65v10.46a7,7,0,0,1-.71,3.65A4.85,4.85,0,0,1,238,469,85.57,85.57,0,0,1,212.77,472.63Z"/><path class="cls-4" d="M251.29,470.57c-2.11,0-3.17-.8-3.17-2.38a6.34,6.34,0,0,1,.4-2c.26-.8.55-1.67.87-2.62l35.19-98.76a9.21,9.21,0,0,1,1.35-2.46,4.38,4.38,0,0,1,1.66-1.27,7.39,7.39,0,0,1,2.7-.4h17.6a5.88,5.88,0,0,1,3.72,1,7,7,0,0,1,2,3.17l35.2,98.76c.31,1,.6,1.82.87,2.62a6.64,6.64,0,0,1,.4,2c0,1.58-1.06,2.38-3.17,2.38H329.45a6,6,0,0,1-3.57-.88,6.47,6.47,0,0,1-2-3.25l-6.5-20.92H279.51l-6.18,20.92a6.47,6.47,0,0,1-2,3.25,6.31,6.31,0,0,1-3.73.88Zm61.19-42.17-14.11-46-13.79,46Z"/><path class="cls-4" d="M368.44,470.57a3.43,3.43,0,0,1-4-4V364.67a4.09,4.09,0,0,1,.95-3.09,4.38,4.38,0,0,1,3-.88H404q24.58,0,37.81,14.19T455,415.56q0,26.31-13.24,40.66t-37.33,14.35Zm19.82-18.39h13.63q28.69,0,28.7-35V414q0-34.87-28.85-34.88H388.26Z"/><path class="cls-4" d="M481.16,470.57a3.43,3.43,0,0,1-4-4V364.67a4.05,4.05,0,0,1,.95-3.09,4.35,4.35,0,0,1,3-.88h64.36a3.3,3.3,0,0,1,4,4v10.46a4.35,4.35,0,0,1-.88,3,4.05,4.05,0,0,1-3.09.95H501v26h35.52a3.28,3.28,0,0,1,4,4v10.46a4.36,4.36,0,0,1-.87,3,4.08,4.08,0,0,1-3.09,1H501v28.7h44.55a3.29,3.29,0,0,1,4,4V466.6a4.35,4.35,0,0,1-.88,3,4.05,4.05,0,0,1-3.09,1Z"/><path class="cls-4" d="M572.79,470.57a3.44,3.44,0,0,1-4-4V364.67a4.05,4.05,0,0,1,1-3.09,4.35,4.35,0,0,1,3-.88h18.39a5.81,5.81,0,0,1,3.25.8,6,6,0,0,1,2,2.37l28.37,59.3,28.54-59.3a6,6,0,0,1,2-2.37,5.79,5.79,0,0,1,3.25-.8h17.92a3.29,3.29,0,0,1,4,4V466.6a4.35,4.35,0,0,1-.87,3,4.08,4.08,0,0,1-3.09,1h-13a3.43,3.43,0,0,1-4-4V394.47L636.83,440.6a6,6,0,0,1-2,2.38,5.79,5.79,0,0,1-3.25.79h-14a5.79,5.79,0,0,1-3.25-.79,6,6,0,0,1-2-2.38l-22.67-46.13V466.6a4.35,4.35,0,0,1-.87,3,4.05,4.05,0,0,1-3.09,1Z"/><path class="cls-4" d="M734.8,470.57a3.43,3.43,0,0,1-4-4V430l-33-62.93a11.28,11.28,0,0,1-1.43-4c0-1.58,1.11-2.38,3.33-2.38h17.12a6.91,6.91,0,0,1,3.33.64,5,5,0,0,1,1.9,2.53l21.09,48.2,21.87-48.2a6.16,6.16,0,0,1,2-2.53,6.38,6.38,0,0,1,3.25-.64h16c2.22,0,3.33.8,3.33,2.38a10,10,0,0,1-1.43,4L754.3,430.3v36.3a4.35,4.35,0,0,1-.87,3,4.05,4.05,0,0,1-3.09,1Z"/><path class="cls-4" d="M162.9,696.06a58.13,58.13,0,0,1-12.34-15.57,3.43,3.43,0,0,1-.59-2.19,4.66,4.66,0,0,1,1.29-2.2l4.36-4.77c1.09-1.2,2.06-1.42,2.9-.66a4.65,4.65,0,0,1,.55.65,10.74,10.74,0,0,1,.65,1,74.71,74.71,0,0,0,11.91,14.46q4.62,4.22,8.66,4.82a7.38,7.38,0,0,0,6.9-2.53,6.7,6.7,0,0,0,2-5.23q-.24-2.79-3.29-8.74l-3.95-7.62q-4.6-8.94-4.27-15.45t5.56-12.22q6.72-7.37,16.16-6.78t18.6,9a56.74,56.74,0,0,1,11.23,14.26,3.37,3.37,0,0,1,.59,2.19,4.66,4.66,0,0,1-1.29,2.2l-4.29,4.7c-1.09,1.2-2.06,1.41-2.89.65a11.79,11.79,0,0,1-1.36-1.81,59.44,59.44,0,0,0-4.65-6.54,50.22,50.22,0,0,0-5-5.4q-9.24-8.43-14.67-2.48a6.18,6.18,0,0,0-1.69,5.06q.33,2.88,3.28,8.44l3.86,7.41q4.86,9.3,4.7,15.69t-5.38,12.1q-7.37,8.06-17.41,7.43T162.9,696.06Z"/><path class="cls-4" d="M212.71,733.48a2.71,2.71,0,0,1-1.42-1.56,2.78,2.78,0,0,1,.47-2.06l34.52-58.78a2.73,2.73,0,0,1,1.59-1.46,3,3,0,0,1,2,.52L287,691.93a2.2,2.2,0,0,1,.95,3.63l-3.55,6a2.89,2.89,0,0,1-1.52,1.45,2.76,2.76,0,0,1-2.1-.5L255.1,687.45l-8.8,15,20.47,12a2.19,2.19,0,0,1,1,3.62l-3.54,6a3,3,0,0,1-1.53,1.44,2.72,2.72,0,0,1-2.1-.5l-20.48-12-9.71,16.54L256,744.67a3,3,0,0,1,1.49,1.55,2.88,2.88,0,0,1-.54,2.08l-3.55,6a2.89,2.89,0,0,1-1.52,1.45,2.76,2.76,0,0,1-2.1-.5Z"/><path class="cls-4" d="M309.7,780.14q-17-5.67-22.71-17.69t.15-29.61q5.81-17.4,18.14-23.9t28.93-1a54.42,54.42,0,0,1,13.87,7,3,3,0,0,1,1.38,1.57,4.53,4.53,0,0,1-.3,2.58L347,725.64c-.52,1.54-1.35,2.12-2.48,1.74a15.14,15.14,0,0,1-2-1.1,59.08,59.08,0,0,0-10.73-5q-10.46-3.5-17.48.31T303.5,736.73l-.77,2.31q-3.76,11.26-.56,18.42t13.56,10.61a51.78,51.78,0,0,0,6.18,1.56,61.72,61.72,0,0,0,6.93,1,14.47,14.47,0,0,1,2.24.3c1.14.38,1.45,1.34.94,2.88l-2.21,6.64a4.7,4.7,0,0,1-1.23,2.16,3.23,3.23,0,0,1-2.12.52A57.23,57.23,0,0,1,309.7,780.14Z"/><path class="cls-4" d="M387.74,795.32q-14.48-1.2-21.73-9.3t-6.1-21.94l3.62-43.63a2.69,2.69,0,0,1,.81-2,2.89,2.89,0,0,1,2.05-.42l10.57.88a2.2,2.2,0,0,1,2.42,2.86l-3.69,44.37q-.62,7.4,2.77,11.55t10.35,4.75q7,.57,11-3t4.63-11l3.68-44.36a2.7,2.7,0,0,1,.81-2,3,3,0,0,1,2.05-.42l10.56.88a2.91,2.91,0,0,1,2,.75,2.94,2.94,0,0,1,.41,2.11l-3.64,43.73q-1.12,13.63-9.62,20.48T387.74,795.32Z"/><path class="cls-4" d="M455.76,793.77a2.74,2.74,0,0,1-2.09-.31,2.81,2.81,0,0,1-.94-1.89l-10.58-67.33a2.76,2.76,0,0,1,.31-2.15,3,3,0,0,1,1.9-.88l25.34-4q11.31-1.77,18.85,3.16t9.14,15.19A19.74,19.74,0,0,1,496,747.43a23.08,23.08,0,0,1-8.5,9.38l20.37,24.48a5.59,5.59,0,0,1,1.44,2.35q.27,1.68-2,2L497,787.29a4.73,4.73,0,0,1-2.2,0,4.27,4.27,0,0,1-1.66-1.29L474.06,762l-10.26,1.62,4,25.55a2.87,2.87,0,0,1-.26,2.08,2.76,2.76,0,0,1-1.94,1ZM473,751.05q11-1.74,9.25-12.83-1.71-10.89-12.5-9.2l-11.1,1.75,3.46,22Z"/><path class="cls-4" d="M537.27,776a2.3,2.3,0,0,1-3.37-1.64l-22.3-64.41a2.72,2.72,0,0,1-.08-2.16,3,3,0,0,1,1.72-1.21l10-3.47a2.2,2.2,0,0,1,3.37,1.64l22.3,64.41a2.85,2.85,0,0,1,.11,2.09,2.75,2.75,0,0,1-1.74,1.28Z"/><path class="cls-4" d="M595.75,751a2.74,2.74,0,0,1-2.07.41,2.77,2.77,0,0,1-1.53-1.45l-28-50.87-17.27,9.52a2.74,2.74,0,0,1-2.07.41,2.71,2.71,0,0,1-1.53-1.45l-3.58-6.5a2.7,2.7,0,0,1-.44-2.12,2.88,2.88,0,0,1,1.48-1.48l48.45-26.72a3,3,0,0,1,2.1-.48,2.86,2.86,0,0,1,1.5,1.53l3.59,6.49a3,3,0,0,1,.46,2,2.73,2.73,0,0,1-1.5,1.55L578,691.36l28.05,50.87a3,3,0,0,1,.46,2,2.74,2.74,0,0,1-1.51,1.55Z"/><path class="cls-4" d="M666.29,702.28a2.29,2.29,0,0,1-3.74-.2l-16.38-18.2-44.53-16.54a7.48,7.48,0,0,1-2.49-1.34c-.7-.78-.51-1.67.6-2.67l8.51-7.65a4.49,4.49,0,0,1,1.94-1.18,3.4,3.4,0,0,1,2.08.41l32,14.53L633.63,635.7a4.15,4.15,0,0,1-.15-2.15,4.41,4.41,0,0,1,1.33-1.76l8-7.16c1.11-1,2-1.1,2.72-.31a6.63,6.63,0,0,1,1.06,2.61L658,673.54l16.23,18.05a2.85,2.85,0,0,1,.91,1.89,2.69,2.69,0,0,1-1.11,1.85Z"/><path class="cls-4" d="M270.54,154.38q-14.84,8.64-27.71,5T221,140.3q-9.5-16.31-6.2-29.7t19-22.57a53.56,53.56,0,0,1,18.23-6.81,3.86,3.86,0,0,1,2.22.12,4.3,4.3,0,0,1,1.61,1.82l3.26,5.58c.82,1.41.71,2.41-.33,3a8.83,8.83,0,0,1-1.81.68,59.8,59.8,0,0,0-15.2,5.91q-10.17,5.93-12,13.79t4.55,18.75l1,1.65q6.3,10.82,13.92,13.05t17.88-3.73a67.34,67.34,0,0,0,6.51-4.41l-9-15.47-9.62,5.6a2.29,2.29,0,0,1-3.62-1l-3.1-5.31a2.73,2.73,0,0,1-.49-2.11,2.91,2.91,0,0,1,1.45-1.51l20-11.64a2.21,2.21,0,0,1,3.63,1l15.74,27a3.86,3.86,0,0,1-.17,4.76,51,51,0,0,1-7.65,8.14A66.08,66.08,0,0,1,270.54,154.38Z"/><path class="cls-4" d="M306.27,135.47a2.29,2.29,0,0,1-3.35-1.68L281.4,69.11a2.74,2.74,0,0,1,0-2.16,3,3,0,0,1,1.73-1.19l10.06-3.34a2.87,2.87,0,0,1,2.14-.1,2.84,2.84,0,0,1,1.21,1.77l18.34,55.12,28.06-9.33a2.19,2.19,0,0,1,3.35,1.67l2.34,7a3,3,0,0,1,.09,2.1,2.78,2.78,0,0,1-1.76,1.26Z"/><path class="cls-4" d="M387.12,117.86q-11.17,1.19-19.74-2.71a30.7,30.7,0,0,1-13.64-12.1,46.31,46.31,0,0,1-6.31-19.8q-1.26-12,2.2-21.07a30.87,30.87,0,0,1,11-14.43A38,38,0,0,1,379,41.22q11.16-1.17,19.73,2.66a30.38,30.38,0,0,1,13.64,12,46.53,46.53,0,0,1,6.3,19.8q1.28,12-2.19,21.12a30.82,30.82,0,0,1-11,14.49A38,38,0,0,1,387.12,117.86ZM385.76,105q9.48-1,13.75-8.07t2.95-19.49Q401.14,65,395.5,59t-15.12-5q-9.5,1-13.76,8t-2.95,19.45Q365,94,370.63,100T385.76,105Z"/><path class="cls-4" d="M436.07,114a2.29,2.29,0,0,1-2.3-3l8.61-67.61a2.69,2.69,0,0,1,.89-2,2.9,2.9,0,0,1,2.07-.33l23.55,3q10.51,1.34,16.3,7.52a17.44,17.44,0,0,1,4.69,14.81,16.78,16.78,0,0,1-3.64,8.89,16.05,16.05,0,0,1-8.06,5,19.59,19.59,0,0,1,9.41,7.87,18,18,0,0,1,2.1,11.65,18.31,18.31,0,0,1-9,14.14q-7.75,4.68-19.64,3.17Zm26.14-8.11q10.73,1.37,12-8.73,1.32-10.41-10.14-11.86L452.41,83.8l-2.61,20.51Zm.71-31.64q10.2,1.29,11.41-8.17,1.23-9.67-8.13-10.86l-10-1.27-2.43,19.14Z"/><path class="cls-4" d="M491.14,121.12c-1.34-.47-1.82-1.21-1.47-2.21a4.54,4.54,0,0,1,.69-1.16l1.14-1.45,44.23-54.39a6.33,6.33,0,0,1,1.4-1.25,2.9,2.9,0,0,1,1.33-.43,5,5,0,0,1,1.79.36l11.09,3.92A4,4,0,0,1,553.47,66a4.6,4.6,0,0,1,.54,2.44l.13,70.1c0,.67,0,1.29,0,1.85a4.24,4.24,0,0,1-.2,1.33c-.35,1-1.19,1.27-2.52.79l-11-3.89a4,4,0,0,1-2.06-1.35,4.32,4.32,0,0,1-.52-2.49l.57-14.64-23.88-8.46L506,123.44a4.37,4.37,0,0,1-2,1.61,4.22,4.22,0,0,1-2.54-.29Zm48-12.92,1.37-32.12-19,25.89Z"/><path class="cls-4" d="M560.72,148.44a2.28,2.28,0,0,1-.91-3.63l35-58.48a2.74,2.74,0,0,1,1.61-1.45,3,3,0,0,1,2,.54l9.09,5.45a2.2,2.2,0,0,1,.91,3.63l-29.84,49.84L604,159.53a2.87,2.87,0,0,1,1.47,1.56,2.83,2.83,0,0,1-.56,2.07l-3.81,6.37a2.94,2.94,0,0,1-1.54,1.43,2.75,2.75,0,0,1-2.1-.52Z"/></g></g></g></svg>