<svg xmlns="http://www.w3.org/2000/svg" viewBox="0 0 785.22 226.91"><defs><style>.cls-1,.cls-3{fill:#0096d6;}.cls-1,.cls-2{fill-rule:evenodd;}.cls-2{fill:#232f3e;}.cls-4{fill:none;stroke:#0096d6;stroke-linecap:round;stroke-linejoin:round;stroke-width:15px;}</style></defs><g id="Layer_2" data-name="Layer 2"><g id="GSA"><g id="knet"><path class="cls-1" d="M292.14,185.59c-27.36,20.2-67,30.93-101.18,30.93-47.87,0-91-17.69-123.6-47.15-2.56-2.31-.28-5.47,2.8-3.68,35.19,20.48,78.72,32.82,123.67,32.82a246.1,246.1,0,0,0,94.34-19.31c4.62-2,8.5,3.05,4,6.39Z"/><path class="cls-1" d="M303.53,172.6c-3.5-4.48-23.13-2.13-32-1.07-2.67.32-3.08-2-.67-3.71,15.66-11,41.32-7.82,44.3-4.14s-.79,29.45-15.46,41.73c-2.26,1.88-4.41.88-3.41-1.62,3.31-8.25,10.7-26.71,7.2-31.19Z"/><path class="cls-2" d="M272.2,90.12V79.43a2.64,2.64,0,0,1,2.71-2.71h47.9a2.67,2.67,0,0,1,2.77,2.69v9.17c0,1.54-1.31,3.54-3.61,6.73l-24.82,35.43c9.21-.22,19,1.17,27.33,5.87a4.88,4.88,0,0,1,2.54,4.17v11.41c0,1.57-1.72,3.39-3.53,2.44a55.17,55.17,0,0,0-50.62.09c-1.66.89-3.41-.9-3.41-2.48V141.4a12.89,12.89,0,0,1,1.79-7.34L300,92.81H275a2.66,2.66,0,0,1-2.77-2.69Z"/><path class="cls-2" d="M97.45,156.87H82.87a2.75,2.75,0,0,1-2.61-2.46l0-74.8a2.74,2.74,0,0,1,2.81-2.69H96.66a2.75,2.75,0,0,1,2.65,2.52v9.76h.27c3.54-9.44,10.21-13.85,19.18-13.85s14.83,4.41,18.92,13.85c3.53-9.44,11.56-13.85,20.13-13.85,6.12,0,12.79,2.52,16.87,8.18,4.63,6.3,3.68,15.43,3.68,23.46l0,47.2a2.74,2.74,0,0,1-2.81,2.69H161a2.73,2.73,0,0,1-2.61-2.68V114.53c0-3.14.27-11-.41-14-1.09-5-4.36-6.46-8.57-6.46a9.67,9.67,0,0,0-8.71,6.14c-1.5,3.78-1.36,10.07-1.36,14.32v39.65a2.74,2.74,0,0,1-2.81,2.69H121.94a2.74,2.74,0,0,1-2.62-2.68V114.53c0-8.34,1.36-20.62-9-20.62s-10.07,12-10.07,20.62v39.65a2.74,2.74,0,0,1-2.81,2.69Z"/><path class="cls-2" d="M367,90.61c-10.75,0-11.43,14.63-11.43,23.77S355.39,143,366.82,143s11.83-15.74,11.83-25.34c0-6.29-.27-13.85-2.18-19.83-1.63-5.2-4.89-7.24-9.52-7.24Zm-.13-15.27c21.63,0,33.33,18.57,33.33,42.18,0,22.83-12.92,40.93-33.33,40.93-21.23,0-32.79-18.58-32.79-41.71,0-23.3,11.7-41.4,32.79-41.4Z"/><path class="cls-2" d="M428.2,156.87H413.68a2.73,2.73,0,0,1-2.61-2.68l0-74.83a2.75,2.75,0,0,1,2.8-2.44h13.52A2.79,2.79,0,0,1,430,79V90.45h.27c4.09-10.23,9.8-15.11,19.87-15.11,6.53,0,12.92,2.36,17,8.81,3.81,6,3.81,16.06,3.81,23.3v47.07a2.75,2.75,0,0,1-2.79,2.35H453.5a2.72,2.72,0,0,1-2.59-2.35V113.91c0-8.19.95-20.15-9.12-20.15-3.54,0-6.8,2.36-8.44,6-2,4.56-2.31,9.12-2.31,14.17v40.27a2.78,2.78,0,0,1-2.84,2.69Z"/><path class="cls-2" d="M248.7,156.69a3,3,0,0,1-3.44.34c-4.84-4-5.71-5.88-8.36-9.71-8,8.14-13.66,10.59-24,10.59-12.27,0-21.81-7.57-21.81-22.72,0-11.83,6.41-19.87,15.54-23.82,7.91-3.47,19-4.1,27.41-5.05v-1.89c0-3.47.27-7.57-1.77-10.57-1.78-2.68-5.19-3.79-8.19-3.79-5.56,0-10.5,2.85-11.71,8.76a3.08,3.08,0,0,1-2.53,2.68L195.68,100a2.56,2.56,0,0,1-2.17-3c3.25-17.14,18.72-22.32,32.59-22.32,7.09,0,16.36,1.9,22,7.26,7.09,6.63,6.41,15.46,6.41,25.09v22.7c0,6.83,2.84,9.83,5.5,13.51.93,1.33,1.14,2.9,0,3.87-3,2.5-8.26,7.09-11.18,9.68l0,0ZM234,121.15c0,5.68.13,10.41-2.73,15.46-2.32,4.1-6,6.63-10.09,6.63-5.59,0-8.86-4.26-8.86-10.57,0-12.42,11.13-14.67,21.68-14.67v3.15Z"/><path class="cls-2" d="M57.64,156.69a3,3,0,0,1-3.44.34c-4.85-4-5.71-5.88-8.36-9.71-8,8.14-13.66,10.59-24,10.59C9.54,157.91,0,150.34,0,135.19c0-11.83,6.41-19.87,15.54-23.82,7.91-3.47,19-4.1,27.41-5.05v-1.89c0-3.47.27-7.57-1.77-10.57C39.4,91.18,36,90.07,33,90.07c-5.55,0-10.5,2.85-11.71,8.76a3.08,3.08,0,0,1-2.53,2.68L4.62,100a2.56,2.56,0,0,1-2.17-3C5.69,79.79,21.17,74.61,35,74.61c7.09,0,16.36,1.9,22,7.26C64.08,88.5,63.4,97.33,63.4,107v22.7c0,6.83,2.83,9.83,5.5,13.51.93,1.33,1.14,2.9-.05,3.87-3,2.5-8.27,7.09-11.18,9.68l0,0ZM43,121.15c0,5.68.13,10.41-2.73,15.46-2.32,4.1-6,6.63-10.09,6.63-5.59,0-8.86-4.26-8.86-10.57C21.27,120.25,32.41,118,43,118v3.15Z"/><path class="cls-3" d="M523.45,165.76V40.7h15.88v76.89L565.7,80.08H585L554,120.64l33.63,45.12H568.06L539.33,125v40.73Z"/><path class="cls-3" d="M641.07,165.76V108.64q0-9.63-2.62-13.69t-8.36-4.06q-8.62,0-18.43,6.76v68.11H595.78V80.08H609l1.35,8.28q13.35-10.48,26.54-10.48,9.79,0,14.95,6.51T657,103.06v62.7Z"/><path class="cls-3" d="M687,126.38q.16,15.21,5.32,22t16.48,6.76q9.63,0,21.29-5.24v11.66q-10.3,6.42-24,6.42-17.24,0-25.69-11.15t-8.45-34q0-21.79,8.45-33.46t24.17-11.66q13.35,0,20.2,8.79t6.84,25.86a68.22,68.22,0,0,1-1.35,14Zm16.9-36.5a13.72,13.72,0,0,0-12.09,6.5q-4.3,6.51-4.81,19.19h30.41c0-.68,0-1.41.09-2.2s.08-1.58.08-2.37q0-10.81-3.38-16T703.94,89.88Z"/><path class="cls-3" d="M785.22,163.73a39.37,39.37,0,0,1-15.38,3q-10.47,0-15.46-5.74t-5-17.75V92.92h-12V82.44l12.67-2,2.37-24.34h12.84v24h19.6V92.92h-19.6V142.1q0,6.42,2.11,9t7.52,2.62a32.33,32.33,0,0,0,10.31-1.69Z"/><line class="cls-4" x1="496.42" y1="7.5" x2="496.42" y2="219.41"/></g></g></g></svg>