<svg xmlns="http://www.w3.org/2000/svg" viewBox="0 0 721.05 720.1"><defs><style>.cls-1{fill:none;stroke:#0096d6;stroke-linecap:round;stroke-linejoin:round;stroke-width:25px;}</style></defs><g id="Layer_2" data-name="Layer 2"><g id="GSA"><g id="Managers"><circle class="cls-1" cx="564.89" cy="156.16" r="64.68"/><path class="cls-1" d="M708.55,178.22V134.09l-40-3.1A106.39,106.39,0,0,0,656,100.67l26.1-30.49L650.87,39l-30.49,26.1a106.1,106.1,0,0,0-30.32-12.56l-3.1-40H542.83l-3.1,40a106.1,106.1,0,0,0-30.32,12.56L478.91,39l-31.2,31.2,26.11,30.49A106.1,106.1,0,0,0,461.26,131l-40,3.1v44.13l40,3.1a106.1,106.1,0,0,0,12.56,30.32l-26.11,30.49,31.2,31.21,30.5-26.11a106.1,106.1,0,0,0,30.32,12.56l3.1,40H587l3.1-40a106.1,106.1,0,0,0,30.32-12.56l30.49,26.11,31.2-31.21L656,211.64a106.39,106.39,0,0,0,12.56-30.32Z"/><path class="cls-1" d="M47.82,453.05A141.05,141.05,0,0,1,188.88,312"/><path class="cls-1" d="M410.54,563.3c-6.28,13.33-53.33,9.41-53.33,9.41V610A26.26,26.26,0,0,1,331,636.23H313.29l8.83,71.37H80.38S92.26,664.47,33.17,536A176.39,176.39,0,1,1,365.26,453C365.26,483.18,416.81,550,410.54,563.3Z"/><polyline class="cls-1" points="525.63 393.65 564.85 354.43 604.07 393.65"/><polyline class="cls-1" points="185.11 172.72 145.89 211.94 106.67 172.72"/><polyline class="cls-1" points="564.85 354.43 564.85 652.55 396.35 652.55"/><polyline class="cls-1" points="145.89 211.94 145.89 80.94 371.67 80.94"/></g></g></g></svg>