<svg xmlns="http://www.w3.org/2000/svg" viewBox="0 0 831.92 831.92"><defs><style>.cls-1{fill:none;stroke:#0096d6;stroke-linecap:round;stroke-linejoin:round;stroke-width:25px;}.cls-2{fill:#232f3e;}</style></defs><g id="Layer_2" data-name="Layer 2"><g id="GSA"><g id="Wiki"><path class="cls-1" d="M819.42,416A403.46,403.46,0,1,1,718.86,149.44,402,402,0,0,1,819.42,416Z"/><ellipse class="cls-1" cx="415.96" cy="415.96" rx="196.84" ry="403.46"/><path class="cls-1" d="M718.86,149.44c-37.69,20.89-84.31,37.85-137,49.45C531.3,210.05,475.12,216.26,416,216.26S300.62,210.05,250,198.89c-52.64-11.6-99.26-28.56-136.95-49.45a403.46,403.46,0,0,1,605.8,0Z"/><path class="cls-1" d="M714.71,687.13a403.48,403.48,0,0,1-597.5,0c37.44-20.12,83.3-36.44,134.86-47.63C302.14,628.62,357.6,622.58,416,622.58s113.82,6,163.89,16.92C631.41,650.69,677.27,667,714.71,687.13Z"/><path class="cls-2" d="M364.35,572.87l2.07-7,27.36-3.73V385.48L360.62,383q0-3.74,1.86-5.19c1.25-1,3.66-1.86,7.26-2.69q7.86-2.07,31.09-5.18t42.7-4.77V562.09l25.29,3.31q4.14.42,4.14,2.9a6.36,6.36,0,0,1-2.07,4.57Zm22.8-273.1q0-13.68,7.88-22t20.72-8.29q12.86,0,20.73,8.29t7.88,22q0,13.68-7.88,21.76t-20.73,8.09q-12.86,0-20.72-8.09T387.15,299.77Z"/></g></g></g></svg>